<svg width="52" height="41" viewBox="0 0 41 42" fill="none" xmlns="http://www.w3.org/2000/svg">
<path fill-rule="evenodd" clip-rule="evenodd" d="M40.3376 20.9156C40.3376 32.0396 31.3199 41.0574 20.1959 41.0574C9.07195 41.0574 0.0541992 32.0396 0.0541992 20.9156C0.0541992 9.79168 9.07195 0.773926 20.1959 0.773926C31.3199 0.773926 40.3376 9.79168 40.3376 20.9156ZM20.1958 37.7003L11.6986 22.5942H16.3484C16.996 24.0762 18.4747 25.1119 20.1954 25.1119C22.5129 25.1119 24.3916 23.2332 24.3916 20.9157C24.3916 18.5982 22.5129 16.7195 20.1954 16.7195C18.4747 16.7195 16.9959 17.7552 16.3484 19.2372H9.81031L5.08952 10.8447H35.3021L20.1958 37.7003Z" fill="#155EEF"/>
</svg>
